<svg xmlns="http://www.w3.org/2000/svg" width="1024" height="1024" viewBox="0 0 1024 1024">
  <!-- KeySwapo icon proposal 2, Keycap: one big key with the ⇄ legend. -->
  <defs>
    <path id="shape" d="M383.41 100L640.59 100C722.19 100 763 100 799.79 112.14L806.92 113.89C854.88 131.34 892.66 169.12 910.11 217.08C924 261 924 301.81 924 383.41L924 640.59C924 722.19 924 763 911.86 799.79L910.11 806.92C892.66 854.88 854.88 892.66 806.92 910.11C763 924 722.19 924 640.59 924L383.41 924C301.81 924 261 924 224.21 911.86L217.08 910.11C169.12 892.66 131.34 854.88 113.89 806.92C100 763 100 722.19 100 640.59L100 383.41C100 301.81 100 261 112.14 224.21L113.89 217.08C131.34 169.12 169.12 131.34 217.08 113.89C261 100 301.81 100 383.41 100Z"/>
    <clipPath id="clip"><use href="#shape"/></clipPath>
    <filter id="bodyShadow" x="-10%" y="-10%" width="120%" height="125%">
      <feGaussianBlur in="SourceAlpha" stdDeviation="10"/>
      <feOffset dy="10"/>
      <feComponentTransfer><feFuncA type="linear" slope="0.3"/></feComponentTransfer>
      <feMerge><feMergeNode/><feMergeNode in="SourceGraphic"/></feMerge>
    </filter>
    <linearGradient id="bg" x1="0" y1="0" x2="0" y2="1">
      <stop offset="0" stop-color="#FFC247"/>
      <stop offset="0.5" stop-color="#FF7A45"/>
      <stop offset="1" stop-color="#FF3D6E"/>
    </linearGradient>
    <radialGradient id="glow" cx="512" cy="110" r="560" gradientUnits="userSpaceOnUse">
      <stop offset="0" stop-color="#fff" stop-opacity="0.35"/>
      <stop offset="1" stop-color="#fff" stop-opacity="0"/>
    </radialGradient>
    <linearGradient id="rim" x1="0" y1="0" x2="0" y2="1">
      <stop offset="0" stop-color="#fff" stop-opacity="0.5"/>
      <stop offset="0.2" stop-color="#fff" stop-opacity="0"/>
      <stop offset="0.8" stop-color="#fff" stop-opacity="0"/>
      <stop offset="1" stop-color="#fff" stop-opacity="0.12"/>
    </linearGradient>
    <linearGradient id="keyFace" x1="0" y1="0" x2="0" y2="1">
      <stop offset="0" stop-color="#FFFFFF"/>
      <stop offset="1" stop-color="#F1F2F6"/>
    </linearGradient>
    <radialGradient id="keyDish" cx="512" cy="470" r="330" gradientUnits="userSpaceOnUse">
      <stop offset="0.55" stop-color="#000" stop-opacity="0"/>
      <stop offset="1" stop-color="#000" stop-opacity="0.06"/>
    </radialGradient>
    <linearGradient id="keySide" x1="0" y1="0" x2="0" y2="1">
      <stop offset="0" stop-color="#D9DCE4"/>
      <stop offset="1" stop-color="#A7ACBA"/>
    </linearGradient>
    <linearGradient id="legend" x1="372" y1="0" x2="652" y2="0" gradientUnits="userSpaceOnUse">
      <stop offset="0" stop-color="#FF9F0A"/>
      <stop offset="1" stop-color="#FF2D6A"/>
    </linearGradient>
    <filter id="keyShadow" x="-50%" y="-50%" width="200%" height="200%">
      <feGaussianBlur stdDeviation="26"/>
    </filter>
  </defs>
  <use href="#shape" fill="url(#bg)" filter="url(#bodyShadow)"/>
  <g clip-path="url(#clip)">
    <rect x="100" y="100" width="824" height="824" fill="url(#glow)"/>
  </g>
  <use href="#shape" fill="none" stroke="url(#rim)" stroke-width="6" clip-path="url(#clip)"/>
  <!-- Key -->
  <path d="M447.98 310.4L576.02 310.4C627.96 310.4 653.93 310.4 677.35 318.13L681.88 319.24C712.41 330.35 736.45 354.39 747.56 384.92C756.4 412.87 756.4 438.84 756.4 490.78L756.4 618.82C756.4 670.76 756.4 696.73 748.67 720.15L747.56 724.68C736.45 755.21 712.41 779.25 681.88 790.36C653.93 799.2 627.96 799.2 576.02 799.2L447.98 799.2C396.04 799.2 370.07 799.2 346.65 791.47L342.12 790.36C311.59 779.25 287.55 755.21 276.44 724.68C267.6 696.73 267.6 670.76 267.6 618.82L267.6 490.78C267.6 438.84 267.6 412.87 275.33 389.45L276.44 384.92C287.55 354.39 311.59 330.35 342.12 319.24C370.07 310.4 396.04 310.4 447.98 310.4Z" fill="#7A0F35" opacity="0.5" filter="url(#keyShadow)"/>
  <path d="M432.38 274L591.62 274C643.56 274 669.53 274 692.95 281.73L697.48 282.84C728.01 293.95 752.05 317.99 763.16 348.52C772 376.47 772 402.44 772 454.38L772 613.62C772 665.56 772 691.53 764.27 714.95L763.16 719.48C752.05 750.01 728.01 774.05 697.48 785.16C669.53 794 643.56 794 591.62 794L432.38 794C380.44 794 354.47 794 331.05 786.27L326.52 785.16C295.99 774.05 271.95 750.01 260.84 719.48C252 691.53 252 665.56 252 613.62L252 454.38C252 402.44 252 376.47 259.73 353.05L260.84 348.52C271.95 317.99 295.99 293.95 326.52 282.84C354.47 274 380.44 274 432.38 274Z" fill="url(#keySide)"/>
  <path d="M432.38 230L591.62 230C643.56 230 669.53 230 692.95 237.73L697.48 238.84C728.01 249.95 752.05 273.99 763.16 304.52C772 332.47 772 358.44 772 410.38L772 569.62C772 621.56 772 647.53 764.27 670.95L763.16 675.48C752.05 706.01 728.01 730.05 697.48 741.16C669.53 750 643.56 750 591.62 750L432.38 750C380.44 750 354.47 750 331.05 742.27L326.52 741.16C295.99 730.05 271.95 706.01 260.84 675.48C252 647.53 252 621.56 252 569.62L252 410.38C252 358.44 252 332.47 259.73 309.05L260.84 304.52C271.95 273.99 295.99 249.95 326.52 238.84C354.47 230 380.44 230 432.38 230Z" fill="url(#keyFace)"/>
  <path d="M432.38 230L591.62 230C643.56 230 669.53 230 692.95 237.73L697.48 238.84C728.01 249.95 752.05 273.99 763.16 304.52C772 332.47 772 358.44 772 410.38L772 569.62C772 621.56 772 647.53 764.27 670.95L763.16 675.48C752.05 706.01 728.01 730.05 697.48 741.16C669.53 750 643.56 750 591.62 750L432.38 750C380.44 750 354.47 750 331.05 742.27L326.52 741.16C295.99 730.05 271.95 706.01 260.84 675.48C252 647.53 252 621.56 252 569.62L252 410.38C252 358.44 252 332.47 259.73 309.05L260.84 304.52C271.95 273.99 295.99 249.95 326.52 238.84C354.47 230 380.44 230 432.38 230Z" fill="url(#keyDish)"/>
  <!-- Legend: ⇄ -->
  <g fill="none" stroke="url(#legend)" stroke-width="46" stroke-linecap="round" stroke-linejoin="round">
    <path d="M382 424H642M580 362L642 424L580 486"/>
    <path d="M642 556H382M444 494L382 556L444 618"/>
  </g>
</svg>
