<svg xmlns="http://www.w3.org/2000/svg" width="1024" height="1024" viewBox="0 0 1024 1024">
  <!-- KeySwapo icon proposal 7, Cable: a patch cable rewires the | key to the _ key. -->
  <defs>
    <path id="shape" d="M383.41 100L640.59 100C722.19 100 763 100 799.79 112.14L806.92 113.89C854.88 131.34 892.66 169.12 910.11 217.08C924 261 924 301.81 924 383.41L924 640.59C924 722.19 924 763 911.86 799.79L910.11 806.92C892.66 854.88 854.88 892.66 806.92 910.11C763 924 722.19 924 640.59 924L383.41 924C301.81 924 261 924 224.21 911.86L217.08 910.11C169.12 892.66 131.34 854.88 113.89 806.92C100 763 100 722.19 100 640.59L100 383.41C100 301.81 100 261 112.14 224.21L113.89 217.08C131.34 169.12 169.12 131.34 217.08 113.89C261 100 301.81 100 383.41 100Z"/>
    <clipPath id="clip"><use href="#shape"/></clipPath>
    <filter id="bodyShadow" x="-10%" y="-10%" width="120%" height="125%">
      <feGaussianBlur in="SourceAlpha" stdDeviation="10"/>
      <feOffset dy="10"/>
      <feComponentTransfer><feFuncA type="linear" slope="0.3"/></feComponentTransfer>
      <feMerge><feMergeNode/><feMergeNode in="SourceGraphic"/></feMerge>
    </filter>
    <linearGradient id="bg" x1="0" y1="0" x2="0" y2="1">
      <stop offset="0" stop-color="#35D6C3"/>
      <stop offset="1" stop-color="#0B7A83"/>
    </linearGradient>
    <radialGradient id="glow" cx="512" cy="110" r="560" gradientUnits="userSpaceOnUse">
      <stop offset="0" stop-color="#fff" stop-opacity="0.3"/>
      <stop offset="1" stop-color="#fff" stop-opacity="0"/>
    </radialGradient>
    <linearGradient id="rim" x1="0" y1="0" x2="0" y2="1">
      <stop offset="0" stop-color="#fff" stop-opacity="0.5"/>
      <stop offset="0.2" stop-color="#fff" stop-opacity="0"/>
      <stop offset="0.8" stop-color="#fff" stop-opacity="0"/>
      <stop offset="1" stop-color="#fff" stop-opacity="0.12"/>
    </linearGradient>
    <linearGradient id="keyFace" x1="0" y1="0" x2="0" y2="1">
      <stop offset="0" stop-color="#FFFFFF"/>
      <stop offset="1" stop-color="#F0F3F5"/>
    </linearGradient>
    <linearGradient id="keySide" x1="0" y1="0" x2="0" y2="1">
      <stop offset="0" stop-color="#E4E9EE"/>
      <stop offset="1" stop-color="#A7B3BE"/>
    </linearGradient>
    <linearGradient id="metal" x1="0" y1="0" x2="0" y2="1">
      <stop offset="0" stop-color="#F4F6F8"/>
      <stop offset="1" stop-color="#8F99A6"/>
    </linearGradient>
    <radialGradient id="plug" cx="0.4" cy="0.35" r="0.7" gradientUnits="objectBoundingBox">
      <stop offset="0" stop-color="#FF8A7A"/>
      <stop offset="1" stop-color="#E0303A"/>
    </radialGradient>
    <filter id="keyShadow" x="-50%" y="-50%" width="200%" height="200%">
      <feGaussianBlur stdDeviation="14"/>
    </filter>
    <filter id="cableShadow" x="-50%" y="-50%" width="200%" height="200%">
      <feGaussianBlur stdDeviation="12"/>
    </filter>
  </defs>
  <use href="#shape" fill="url(#bg)" filter="url(#bodyShadow)"/>
  <g clip-path="url(#clip)">
    <rect x="100" y="100" width="824" height="824" fill="url(#glow)"/>
  </g>
  <use href="#shape" fill="none" stroke="url(#rim)" stroke-width="6" clip-path="url(#clip)"/>
  <!-- Keys -->
  <path d="M279.01 198L348.99 198C379.81 198 395.21 198 409.1 202.58L411.8 203.24C429.9 209.83 444.17 224.1 450.76 242.2C456 258.79 456 274.19 456 305.01L456 374.99C456 405.81 456 421.21 451.42 435.1L450.76 437.8C444.17 455.9 429.9 470.17 411.8 476.76C395.21 482 379.81 482 348.99 482L279.01 482C248.19 482 232.79 482 218.9 477.42L216.2 476.76C198.1 470.17 183.83 455.9 177.24 437.8C172 421.21 172 405.81 172 374.99L172 305.01C172 274.19 172 258.79 176.58 244.9L177.24 242.2C183.83 224.1 198.1 209.83 216.2 203.24C232.79 198 248.19 198 279.01 198Z" fill="#053F45" opacity="0.5" filter="url(#keyShadow)"/>
  <path d="M271.01 172L356.99 172C387.81 172 403.21 172 417.1 176.58L419.8 177.24C437.9 183.83 452.17 198.1 458.76 216.2C464 232.79 464 248.19 464 279.01L464 364.99C464 395.81 464 411.21 459.42 425.1L458.76 427.8C452.17 445.9 437.9 460.17 419.8 466.76C403.21 472 387.81 472 356.99 472L271.01 472C240.19 472 224.79 472 210.9 467.42L208.2 466.76C190.1 460.17 175.83 445.9 169.24 427.8C164 411.21 164 395.81 164 364.99L164 279.01C164 248.19 164 232.79 168.58 218.9L169.24 216.2C175.83 198.1 190.1 183.83 208.2 177.24C224.79 172 240.19 172 271.01 172Z" fill="url(#keySide)"/>
  <path d="M267.61 182L360.39 182C385.04 182 397.37 182 408.48 185.67L410.64 186.2C425.12 191.47 436.53 202.88 441.8 217.36C446 230.63 446 242.96 446 267.61L446 360.39C446 385.04 446 397.37 442.33 408.48L441.8 410.64C436.53 425.12 425.12 436.53 410.64 441.8C397.37 446 385.04 446 360.39 446L267.61 446C242.96 446 230.63 446 219.52 442.33L217.36 441.8C202.88 436.53 191.47 425.12 186.2 410.64C182 397.37 182 385.04 182 360.39L182 267.61C182 242.96 182 230.63 185.67 219.52L186.2 217.36C191.47 202.88 202.88 191.47 217.36 186.2C230.63 182 242.96 182 267.61 182Z" fill="url(#keyFace)"/>
  <path d="M254 250L254 376A14 14 0 0 0 282 376L282 250A14 14 0 0 0 254 250Z" fill="#2B3140"/>
  <circle cx="382" cy="360" r="44" fill="url(#metal)"/>
  <circle cx="382" cy="360" r="29" fill="#2A2F3A"/>
  <path d="M675.01 578L744.99 578C775.81 578 791.21 578 805.1 582.58L807.8 583.24C825.9 589.83 840.17 604.1 846.76 622.2C852 638.79 852 654.19 852 685.01L852 754.99C852 785.81 852 801.21 847.42 815.1L846.76 817.8C840.17 835.9 825.9 850.17 807.8 856.76C791.21 862 775.81 862 744.99 862L675.01 862C644.19 862 628.79 862 614.9 857.42L612.2 856.76C594.1 850.17 579.83 835.9 573.24 817.8C568 801.21 568 785.81 568 754.99L568 685.01C568 654.19 568 638.79 572.58 624.9L573.24 622.2C579.83 604.1 594.1 589.83 612.2 583.24C628.79 578 644.19 578 675.01 578Z" fill="#053F45" opacity="0.5" filter="url(#keyShadow)"/>
  <path d="M667.01 552L752.99 552C783.81 552 799.21 552 813.1 556.58L815.8 557.24C833.9 563.83 848.17 578.1 854.76 596.2C860 612.79 860 628.19 860 659.01L860 744.99C860 775.81 860 791.21 855.42 805.1L854.76 807.8C848.17 825.9 833.9 840.17 815.8 846.76C799.21 852 783.81 852 752.99 852L667.01 852C636.19 852 620.79 852 606.9 847.42L604.2 846.76C586.1 840.17 571.83 825.9 565.24 807.8C560 791.21 560 775.81 560 744.99L560 659.01C560 628.19 560 612.79 564.58 598.9L565.24 596.2C571.83 578.1 586.1 563.83 604.2 557.24C620.79 552 636.19 552 667.01 552Z" fill="url(#keySide)"/>
  <path d="M663.61 562L756.39 562C781.04 562 793.37 562 804.48 565.67L806.64 566.2C821.12 571.47 832.53 582.88 837.8 597.36C842 610.63 842 622.96 842 647.61L842 740.39C842 765.04 842 777.37 838.33 788.48L837.8 790.64C832.53 805.12 821.12 816.53 806.64 821.8C793.37 826 781.04 826 756.39 826L663.61 826C638.96 826 626.63 826 615.52 822.33L613.36 821.8C598.88 816.53 587.47 805.12 582.2 790.64C578 777.37 578 765.04 578 740.39L578 647.61C578 622.96 578 610.63 581.67 599.52L582.2 597.36C587.47 582.88 598.88 571.47 613.36 566.2C626.63 562 638.96 562 663.61 562Z" fill="url(#keyFace)"/>
  <path d="M692 778L782 778A14 14 0 0 0 782 750L692 750A14 14 0 0 0 692 778Z" fill="#2B3140"/>
  <circle cx="642" cy="664" r="44" fill="url(#metal)"/>
  <circle cx="642" cy="664" r="29" fill="#2A2F3A"/>
  <!-- Cable -->
  <path d="M382 360C632 360 392 664 642 664" fill="none" stroke="#043A40" stroke-width="44" stroke-linecap="round" opacity="0.45" transform="translate(0 26)" filter="url(#cableShadow)"/>
  <path d="M382 360C632 360 392 664 642 664" fill="none" stroke="#B81D2A" stroke-width="48" stroke-linecap="round"/>
  <path d="M382 360C632 360 392 664 642 664" fill="none" stroke="#FF4B55" stroke-width="36" stroke-linecap="round"/>
  <path d="M382 360C632 360 392 664 642 664" fill="none" stroke="#FF9A9A" stroke-width="8" stroke-linecap="round" opacity="0.8" transform="translate(-7 -8)"/>
  <circle cx="382" cy="360" r="38" fill="url(#plug)"/>
  <circle cx="372" cy="349" r="12" fill="#fff" opacity="0.55"/>
  <circle cx="642" cy="664" r="38" fill="url(#plug)"/>
  <circle cx="632" cy="653" r="12" fill="#fff" opacity="0.55"/>

</svg>
